<svg xmlns="http://www.w3.org/2000/svg" viewBox="0 0 977 1053" fill="none" role="img" aria-label="Emblème — Les Passeurs de Mémoire du Monastère">
<g clip-path="url(#clip0_963_1104)">
<path d="M56.3787 385.317C37.6186 424.278 25.5993 466.039 19.0488 508.279L17.6866 514.689C17.6866 514.689 17.3861 517.366 17.3861 518.27C17.025 520.009 16.4546 527.32 16.4546 527.32C16.4546 527.32 15.951 534.08 16.0712 535.5C16.0712 542.26 15.5508 565.73 15.5708 567.5C15.7462 583 15.6009 588.88 15.5708 595C17.0135 617 16.0708 617.5 16.735 626.042L17.2559 631.192C17.316 631.832 17.6665 635.952 17.937 636.522L18.6582 642.882C19.0712 645.5 19.2314 648 20.5712 653.5C22.2676 660.464 23.6061 667.912 24.1169 670.182C32.7508 707.893 45.0505 744.224 62.6989 778.804C84.7744 822.055 112.95 861.056 146.113 896.477C175.53 927.887 208.383 954.758 244.06 978.638L289.954 1006.73L297.746 1010.82C297.516 1011.24 297.957 1010.83 297.746 1010.82C297.907 1012.09 298.648 1013.29 299.92 1013.92L323.959 1025.97C331.29 1029.64 339.103 1031.7 345.383 1036.31L309.135 1023.66C308.424 1023.38 307.823 1023.39 307.492 1024.55C185.446 973.638 79.4358 868.996 31.8594 744.644C23.1454 721.873 14.2287 696.45 9.57118 673C9.57118 673 8.07118 665.5 7.57118 662L5.0663 646.242L4.07082 637C3.64742 632.218 3.07082 627.5 3.07082 627.5L2.56682 617C2.56682 621.749 2.59687 616.4 2.56682 617C2.07031 609.5 1.57296 609 1.57031 598C1.57031 598 1.07035 587.337 1.07031 580.5C1.07021 561 1.57031 549.5 1.57031 549.5C1.57031 549.5 1.90756 536.639 3.07031 528.5C4.07031 521.5 3.61396 525.59 3.61396 525.59C3.46372 527.84 6.09795 527.19 4.93609 525.42C7.13963 503.949 11.7971 483.719 17.0856 463.209C17.3661 462.128 16.705 461.418 15.9338 461.288C31.0981 407.857 52.5527 365.787 85.736 320.886C87.0781 319.076 96.5128 306.485 98.1555 306.005L103.515 301.445C106.549 297.675 110.456 294.675 112.168 290.205L113.06 288.995C114.021 289.385 115.934 288.265 117.186 289.505C93.2276 318.425 72.3043 349.356 55.8679 382.927L55.317 384.757C55.2369 385.027 55.7277 385.497 56.3487 385.317H56.3787Z" fill="#2E4450"></path>
<path d="M370.931 1043.41L383.611 1048.02L370.571 1045.59C348.876 1040.73 327.922 1033.05 307.5 1024.53C307.84 1023.37 308.441 1023.36 309.142 1023.64L345.39 1036.29C339.11 1031.68 331.298 1029.63 323.966 1025.95L299.927 1013.9C298.665 1013.27 297.924 1012.07 297.754 1010.8C321.362 1023.37 345.631 1034.74 370.921 1043.4L370.931 1043.41Z" fill="#2E4450"></path>
<path d="M56.3762 385.317C55.7552 385.507 55.2644 385.027 55.3445 384.757L55.8954 382.927C72.3318 349.357 92.6845 318.436 116.643 289.515C115.391 288.285 114.049 289.395 113.087 288.995C122.382 279.285 131.817 269.125 143.717 261.255C113.819 292.755 88.3376 325.936 67.5241 363.507C63.4275 370.897 60.6831 378.427 56.3862 385.317H56.3762ZM119.417 286.395C119.417 285.855 118.977 285.415 118.436 285.415C117.895 285.415 117.454 285.855 117.454 286.395C117.454 286.935 117.895 287.375 118.436 287.375C118.977 287.375 119.417 286.935 119.417 286.395Z" fill="#2E4450"></path>
<path d="M3.57057 525.58L4.10485 517.169C6.75912 497.899 10.8056 479.439 15.9639 461.278C16.7351 461.408 17.3962 462.128 17.1158 463.198C11.8273 483.699 7.15976 503.929 4.96624 525.41C6.57233 527.5 2.99817 528 3.57057 525.58Z" fill="#2E4450"></path>
<path d="M838.539 364.367C838.489 362.357 836.936 360.337 839.3 353.217C840.302 353.217 842.665 353.867 842.355 354.897C839.48 357.567 839.28 361.137 841.554 363.977C840.171 364.517 839.35 364.377 838.539 364.367Z" fill="#F2EFE7"></path>
<path d="M90.2913 316.416C97.0221 307.125 103.973 297.965 112.186 290.205C110.474 294.685 106.567 297.675 103.533 301.445L93.7168 313.646C92.4447 315.226 91.994 315.916 90.2812 316.416H90.2913Z" fill="#2E4450"></path>
<path d="M118.439 287.375C118.981 287.375 119.42 286.936 119.42 286.395C119.42 285.854 118.981 285.415 118.439 285.415C117.897 285.415 117.457 285.854 117.457 286.395C117.457 286.936 117.897 287.375 118.439 287.375Z" fill="#2E4450"></path>
<path d="M889.701 807.215L898.966 807.325L918.157 807.765C908.982 824.165 899.347 839.975 887.908 855.706C869.679 880.756 850.308 904.007 827.822 925.397C818.216 912.767 798.715 904.687 783.481 900.147C765.742 894.857 748.244 891.376 729.885 888.696L680.976 881.546L636.414 874.996C634.121 874.656 632.598 872.576 632.478 870.626C632.378 869.006 633.7 866.676 635.813 865.786L692.114 842.125C730.395 828.875 769.678 818.905 809.422 813.705L889.701 807.215Z" fill="#7E7E54"></path>
<path d="M670.227 896.187C666.351 897.017 662.365 895.767 658.218 895.457L645.157 894.497L626.156 893.417L608.618 892.767L589.017 892.297C586.994 892.247 585.381 892.177 584.129 890.897C590.619 889.877 597.881 890.187 605.073 890.577L621.178 891.447L642.232 892.447L657.266 893.407C662.906 893.767 670.037 894.607 670.137 894.827C670.287 895.177 670.317 895.837 670.227 896.177V896.187Z" fill="#F2EFE7"></path>
<path d="M721.282 800.055C705.497 793.315 688.269 789.735 670.661 787.845L646.191 785.215C649.617 783.035 654.074 784.665 658.221 785.035L669.349 786.025C686.526 787.545 703.043 791.005 718.988 797.525C720.551 798.165 721.382 798.925 721.292 800.055H721.282Z" fill="#F2EFE7"></path>
<path d="M644.189 785.255C641.214 785.305 638.37 784.505 635.034 784.425L621.222 784.085C617.216 783.985 613.71 783.415 610.094 783.325C610.004 782.915 610.425 782.265 611.156 782.275L627.021 782.535L634.013 782.705C640.803 782.875 645.371 783.215 644.189 785.245V785.255Z" fill="#F2EFE7"></path>
<path d="M726.18 815.285C728.804 812.035 728.854 807.985 727.332 804.175C730.176 804.745 730.657 807.755 730.296 810.625C730.016 812.875 728.694 814.645 726.18 815.285Z" fill="#F2EFE7"></path>
<path d="M726.317 803.275L722.141 800.315C724.114 800.245 725.566 801.525 726.317 803.275Z" fill="#F2EFE7"></path>
<path d="M576.168 805.145L576.929 805.165C577.991 806.775 579.964 807.325 581.947 807.645L585.072 811.185C585.403 813.915 583.299 816.465 580.324 817.695C568.896 822.425 557.137 825.135 544.707 827.135L475.706 838.236C446.81 842.886 418.855 847.486 390.68 855.156L355.293 866.886L349.203 871.806C348.211 870.956 347.31 871.736 346.639 872.136C340.93 875.536 334.79 879.546 331.244 885.827C327.138 893.097 331.364 901.117 336.633 906.377L338.606 908.347C341.14 910.877 344.235 913.207 347.751 914.167L349.293 915.527C353.31 919.067 358.688 920.897 363.566 922.737L383.799 930.367L456.345 948.758L486.524 956.538L516.592 965.548C527.52 968.818 537.666 973.748 546.821 980.188C559.781 989.289 562.997 1005.15 553.121 1017.44C545.609 1026.8 535.943 1032.6 524.795 1037.23C484 1054.18 441.311 1051.02 399.093 1038.88C332.656 1019.76 261.672 979.218 208.737 935.128C194.224 923.037 180.562 911.637 167.681 897.987C161.041 890.947 153.138 885.017 147.809 876.976C144.073 871.346 149.753 862.996 153.999 859.036C185.57 829.546 277.949 824.025 324.193 820.405L337.665 819.345L356.064 818.235L424.795 813.935L436.754 813.445C436.794 813.895 437.465 814.575 437.795 814.325C440.279 812.425 443.715 813.575 446.78 813.285L468.204 811.235L532.988 803.655L533.98 797.255L560.853 801.365L576.168 805.155V805.145Z" fill="#5C8FA8"></path>
<path d="M380.645 880.316C381.547 877.426 384.972 876.706 387.436 874.996C404.754 862.926 453.883 851.965 478.032 847.485L503.292 842.805C504.745 840.025 507.429 839.675 510.073 841.755L529.304 837.435C533.591 836.475 536.346 835.605 541.774 835.685C539.27 833.245 534.883 831.045 532.059 831.405L512.617 833.905L423.875 849.265L421.11 852.245L417.455 850.596L389.8 857.366C375.427 860.886 361.725 865.386 349.215 871.816L355.305 866.896L390.691 855.166C418.867 847.495 446.822 842.895 475.718 838.245L544.719 827.145C557.149 825.145 568.898 822.445 580.336 817.705C583.311 816.475 585.414 813.925 585.084 811.195C585.485 810.965 587.167 811.525 587.237 812.165L583.141 818.255C569.839 823.905 556.508 827.455 541.494 829.455C542.556 831.165 545.29 834.885 547.924 834.355L579.936 827.935C582.43 827.435 586.416 825.895 588.89 826.135C589.671 826.215 590.312 823.365 590.883 823.515L594.088 824.315C605.106 821.955 613.059 820.235 612.047 811.475C608.491 809.185 606.859 806.375 604.906 803.225C609.223 803.895 613.52 806.055 616.865 809.545C620.21 813.035 616.334 817.605 610.224 820.315L602.582 823.695C576.68 831.335 550.628 835.275 524.136 840.365L473.655 850.075C452.421 854.156 431.948 859.056 411.565 865.956C400.347 869.746 390.261 874.356 380.655 880.316H380.645Z" fill="#F2EFE7"></path>
<path d="M559.951 889.367L536.904 885.367C531.075 884.357 525.786 881.647 521.219 878.027C514.558 872.746 527.659 863.916 540.079 861.366L623.854 844.126C650.547 838.636 676.599 834.566 702.52 826.756C711.054 824.186 718.807 821.505 725.307 816.275C723.033 820.275 718.646 823.266 713.849 824.846L698.734 829.826L669.898 836.936L668.265 841.266C664.75 837.376 661.975 838.676 658.369 839.376L618.105 847.156L538.246 863.476L535.782 867.276C530.123 866.066 525.416 867.636 521.6 872.266L525.716 879.317C536.163 885.687 559.36 886.787 559.971 887.857C560.162 888.187 560.162 888.927 559.951 889.407V889.367Z" fill="#F2EFE7"></path>
<path d="M588.528 965.988C558.089 940.168 510.052 933.628 469.857 926.228L431.806 919.227C416.471 916.407 380.323 906.877 376.617 896.417L379.552 899.457L395.488 907.397L430.003 917.137L500.887 930.288C519.978 933.828 538.047 938.168 555.945 945.388L564.339 950.038C573.043 954.858 581.557 959.468 588.538 965.998L588.528 965.988Z" fill="#F2EFE7"></path>
<path d="M780.236 920.547C753.673 908.477 719.608 902.137 689.87 898.607L673.184 896.626C673.424 895.496 674.756 894.886 676.168 895.086L708.03 899.426C720.86 901.177 732.859 904.167 745.55 907.007L752.09 908.467L777.291 917.447C778.934 918.037 780.746 918.177 780.236 920.567V920.547Z" fill="#F2EFE7"></path>
<path d="M594.256 1013.58C592.994 1009.81 603.07 995.319 595.038 977.309C594.186 975.408 592.313 974.138 593.385 971.898C602.54 984.409 601.488 999.979 594.256 1013.58Z" fill="#F2EFE7"></path>
<path d="M582.086 891.246C575.245 891.286 564.017 890.366 562.945 889.576C563.076 888.496 564.518 887.726 565.98 888.136C575.836 890.846 582.777 887.306 582.086 891.246Z" fill="#F2EFE7"></path>
<path d="M346.65 872.137C346.49 874.607 342.293 875.887 336.373 881.077C330.454 886.267 328.561 894.737 333.889 901.377C335.111 902.897 337.205 903.847 336.644 906.377C331.375 901.117 327.148 893.097 331.255 885.827C334.811 879.537 340.951 875.537 346.65 872.137Z" fill="#F2EFE7"></path>
<path d="M363.566 922.737C358.688 920.897 353.309 919.077 349.293 915.527C351.517 914.237 352.759 916.757 354.331 917.457C357.907 919.047 362.023 918.897 363.556 922.737H363.566Z" fill="#F2EFE7"></path>
<path d="M375.847 887.327C374.635 889.547 375.006 891.867 375.847 894.217C373.794 894.377 372.812 892.607 372.812 890.767C372.812 888.927 373.794 887.157 375.857 887.327H375.847Z" fill="#F2EFE7"></path>
<path d="M795.529 928.387C791.523 927.367 788.107 924.987 784.992 922.477C787.056 921.757 788.408 923.377 790.291 924.317C792.675 925.507 795.108 925.697 795.529 928.387Z" fill="#F2EFE7"></path>
<path d="M347.75 914.167C344.235 913.207 341.15 910.877 338.605 908.347C342.061 909.357 345.116 911.837 347.75 914.167Z" fill="#F2EFE7"></path>
<path d="M784.321 922.397C782.979 922.247 781.797 921.567 781.105 920.427C781.877 920.277 782.738 920.127 783.76 920.357C784.411 920.497 784.731 921.627 784.321 922.397Z" fill="#F2EFE7"></path>
<path d="M377.768 883.177C377.738 884.627 377.056 885.857 375.844 886.517C375.844 885.787 375.544 884.947 375.844 883.947C376.085 883.167 377.197 883.337 377.768 883.177Z" fill="#F2EFE7"></path>
<path d="M591.273 1018.62C591.464 1016.74 592.345 1014.9 594.168 1014.32C593.447 1015.93 592.245 1017.2 591.273 1018.62Z" fill="#F2EFE7"></path>
<path d="M799.284 931.488L798.062 930.428C798.543 930.638 798.964 931.138 799.284 931.488Z" fill="#F2EFE7"></path>
<path d="M590.259 968.218C589.859 968.008 589.538 967.268 589.258 966.918L590.259 968.218Z" fill="#F2EFE7"></path>
<path d="M588.148 1022.66C588.659 1021.71 588.749 1020.52 590.142 1020.27C589.551 1021.14 589.06 1022.04 588.148 1022.66Z" fill="#F2EFE7"></path>
<path d="M610.094 783.324L607.139 783.244L607.119 783.225L580.536 782.764L534.883 782.104C534.062 786.005 533.441 788.685 533.731 792.225L561.005 794.215C562.077 794.285 562.988 794.515 563.128 795.215C563.419 795.245 563.95 795.405 564.16 794.835L587.277 798.025C593.417 798.875 599.266 800.405 604.194 803.315L604.875 803.215C609.202 803.885 613.639 806.205 616.835 809.535C620.03 812.865 616.304 817.595 610.194 820.305L602.552 823.685C576.65 831.325 550.598 835.266 524.106 840.356L473.624 850.066C452.39 854.146 431.927 859.046 411.535 865.946C400.317 869.746 390.23 874.346 380.625 880.306C380.264 881.446 378.962 882.816 377.76 883.166C377.73 884.616 377.049 885.846 375.827 886.506V887.316C374.625 889.527 374.996 891.857 375.827 894.207L376.609 896.407L379.543 899.447L395.479 907.387L429.994 917.127L500.878 930.277C519.959 933.827 538.038 938.167 555.937 945.378L564.33 950.028C573.044 954.848 581.548 959.458 588.529 965.988L589.26 966.908L590.262 968.208C591.854 969.038 592.405 970.548 593.387 971.898C602.542 984.408 601.49 999.989 594.258 1013.58C594.318 1013.77 594.248 1014.15 594.168 1014.32C593.447 1015.93 592.245 1017.2 591.274 1018.62L590.142 1020.27C589.551 1021.13 589.06 1022.03 588.149 1022.66C582.489 1033.1 563.609 1045.23 551.78 1053L564.09 1052.79L610.074 1045.43C646.773 1039.55 695.281 1000.13 674.718 966.638C668.618 956.718 659.864 949.398 649.427 943.968C631.338 934.547 612.567 927.937 592.956 924.017C591.664 924.067 589.851 923.637 587.958 922.797C589.571 921.787 592.035 922.417 593.637 922.977C613.089 925.207 632.36 928.927 651.55 934.707C677.262 944.788 709.063 958.188 703.394 988.358C701.28 999.579 695.13 1009.11 687.077 1017.11L680.086 1024.06L692.136 1020.07C718.328 1008.55 757.721 985.498 779.646 967.518L809.845 942.758L799.298 931.497L798.076 930.437C797.285 930.087 795.702 929.307 795.552 928.397C791.545 927.377 788.13 924.987 785.015 922.487C784.825 922.557 784.524 922.427 784.334 922.407C782.982 922.257 781.81 921.577 781.119 920.437C780.888 920.357 780.538 920.297 780.247 920.557C753.684 908.497 719.62 902.147 689.882 898.617L673.195 896.637C672.324 896.537 671.162 896.007 670.24 896.207C666.364 897.037 662.378 895.777 658.231 895.477L645.17 894.517L626.17 893.437L608.631 892.787L589.03 892.317C586.997 892.267 585.384 892.197 584.142 890.917C583.641 890.987 582.74 891.357 582.099 891.247C575.258 891.287 564.03 890.367 562.958 889.577C562.287 889.087 560.805 889.516 559.963 889.366L536.916 885.366C531.087 884.356 525.798 881.646 521.231 878.026C514.57 872.746 527.671 863.926 540.091 861.366L623.866 844.126C650.549 838.636 676.601 834.575 702.532 826.755C711.066 824.175 718.818 821.495 725.319 816.275C725.509 815.945 725.87 815.375 726.19 815.295C728.805 812.045 728.855 807.995 727.342 804.185C727.002 804.115 726.451 803.595 726.321 803.285L722.144 800.325C721.853 800.455 721.373 800.385 721.272 800.055C705.497 793.315 688.259 789.735 670.651 787.845L646.182 785.215L644.189 785.255C641.214 785.315 638.369 784.504 635.034 784.424L621.222 784.085C617.215 783.985 613.71 783.414 610.094 783.324Z" fill="#5C8FA8"></path>
<path d="M581.948 807.645C579.955 807.325 577.991 806.775 576.93 805.165C579.233 805.235 580.535 806.035 581.948 807.645Z" fill="#F2EFE7"></path>
<path d="M882.352 455.319L882.372 454.199C882.392 453.769 882.872 453.199 883.173 453.379C883.564 453.609 883.804 454.429 883.554 454.759C883.243 455.179 882.902 455.279 882.352 455.319Z" fill="#F2EFE7"></path>
<path d="M935.374 574.432L948.936 589.112C948.135 597.342 947.874 604.932 948.155 612.863L948.746 630.273L948.986 644.393C950.689 639.683 950.278 634.993 950.699 630.283L952.201 613.523L977.011 614.363C972.374 684.074 951.681 747.825 918.167 807.766L898.976 807.326L898.776 697.824C875.919 682.954 849.046 671.564 823.635 685.414L800.878 697.814L800.628 726.235V790.086C800.628 791.796 803.132 794.336 799.756 795.866C795.66 767.436 784.372 736.065 768.015 712.694C766.874 711.064 765.802 709.924 766.373 708.164L779.274 699.574C778.833 699.144 778.382 699.104 777.901 699.274L766.533 707.134C764.91 708.114 763.989 707.374 762.847 705.744C756.327 696.414 748.224 689.114 739.72 681.644C741.283 679.414 747.35 673.764 748.201 671.514C745.767 672.304 740.581 678.634 738.919 681.004C730.044 673.264 720.689 667.024 710.623 660.854C709.551 660.194 709.139 660.373 709.139 659.513C710.841 658.413 714.147 648.513 714.147 648.513C712.644 648.013 708.43 655.993 708.019 658.873C698.183 654.293 688.698 648.903 677.75 645.763C677.59 645.013 677.079 643.593 676.749 643.253C676.438 642.933 675.807 644.753 675.136 645.013C654.914 637.833 633.83 634.433 611.724 635.223L610.723 616.073L649.605 618.623L684.061 621.363L745.529 627.073L785.323 631.203L860.494 640.333C865.172 640.903 869.689 642.353 873.775 640.383L782.809 629.113L745.459 625.163L737.206 624.243L646.23 615.523L610.743 613.523L610.893 590.382L731.978 597.832L785.403 603.402L791.393 604.352L794.398 604.372L819.438 607.302C820.009 607.292 820.91 607.172 821.421 607.392C823.344 608.223 825.368 608.303 827.451 608.353L830.446 608.422L836.475 609.303L879.344 614.373L886.506 615.163L887.387 615.333L900.608 617.373C901.089 617.063 903.493 617.253 903.643 618.293C905.637 632.893 905.597 647.063 905.536 661.254L905.506 669.584C905.506 670.414 903.213 670.594 902.381 671.934L920.661 672.254C919.98 670.334 918.547 670.004 916.624 670.134L906.608 670.814L906.859 661.224L907.9 621.263L908.762 606.252C910.014 600.152 907.76 594.272 905.927 588.392C908.01 588.272 908.732 586.252 909.583 585.362L914.811 579.942L920.701 574.082L928.243 567.012L935.394 574.402L935.374 574.432ZM919.439 697.914L919.559 722.115C921.763 722.415 923.515 722.575 925.599 721.855C917.095 721.805 925.208 709.664 919.439 697.914Z" fill="#E0A878"></path>
<path d="M527.43 779.136L525.107 799.386L475.887 804.596L458.129 806.166C464.149 751.115 484.882 708.894 531.427 676.684C574.937 648.473 621.582 638.303 670.791 658.213C630.175 657.173 593.446 672.614 566.112 701.534C545.599 722.875 532.779 750.465 527.43 779.146V779.136Z" fill="#C77F4A"></path>
<path d="M874.485 700.364L877.51 700.244L884.531 700.404C884.901 700.404 885.352 700.654 885.983 700.514C886.434 700.414 886.805 700.064 886.534 699.554C887.245 699.374 888.247 699.354 888.778 699.664C889.439 700.044 889.809 700.974 889.809 702.294L889.689 807.216L809.41 813.706V796.096L815.44 794.946C815.42 794.816 815.28 794.466 814.899 794.266L809.41 794.216L809.48 765.275C814.188 765.045 819.216 766.465 823.593 763.605L810.021 763.295L809.631 732.404L820.438 732.014C820.438 731.804 820.308 731.474 819.917 731.294L809.721 730.984L809.891 700.504L854.403 699.494C861.504 699.334 868.044 698.944 874.465 700.374L874.485 700.364Z" fill="#E0A878"></path>
<path d="M433.84 808.116L431.075 807.386C431.846 805.096 431.937 802.686 431.175 800.406L431.736 799.226L431.786 798.326L431.836 639.903C428.511 639.753 424.985 640.073 421.76 641.093C421.119 641.293 420.288 641.293 419.787 641.743C419.086 642.363 419.126 643.233 419.106 644.243L418.705 670.423L419.537 807.106L384.34 806.606C382.788 791.495 389.669 782.485 390.58 774.345C392.854 753.875 389.919 733.074 378.982 715.154C368.044 697.234 352.649 684.803 332.547 680.353C312.304 675.873 286.843 688.904 272.39 704.074L259.53 721.184L229.191 700.994L228.98 656.983L232.496 656.253C234.429 657.313 235.641 656.273 237.855 655.713L245.607 653.613L252.508 652.433L263.346 650.443C263.045 650.763 263.726 652.003 262.384 652.183C259.089 652.633 255.653 652.923 253.209 654.773C254.802 658.003 256.104 659.783 259.54 661.493C256.495 663.363 254.832 664.023 252.809 667.023C252.118 668.053 249.063 667.773 248.993 670.783L265.689 666.853C263.826 663.143 264.668 657.303 268.494 655.303C270.858 654.073 274.494 655.333 276.246 656.843C277.689 658.083 277.498 661.453 279.231 663.473C280.934 663.283 284.039 661.543 285.331 663.143L267.603 668.313L248.422 672.613L249.043 673.433L267.623 670.263L299.944 663.533L347.621 653.143L398.633 643.133L461.825 633.092C498.614 627.262 534.852 622.352 572.002 619.302L609.652 616.212L608.761 635.143C597.453 635.623 585.7 637.723 574.923 640.513L572.92 635.143L572.419 635.513C572.119 635.163 573.875 640.383 573.504 640.843L546.22 650.453C545.169 651.243 543.947 650.973 543.556 650.183L542.895 650.853C542.474 652.173 541.352 652.533 540 653.343L513.324 669.013L507.314 663.513L506.814 664.013L512.323 669.513C501.295 677.413 492.103 687.173 482.959 697.444C481.987 698.534 480.334 698.424 480.334 698.424C457.117 727.274 442.363 762.035 436.744 799.186C436.224 802.616 435.302 805.736 433.83 808.156L433.84 808.116ZM540.822 645.643C540.511 645.643 539.53 646.273 540.461 647.263L540.982 647.763L541.693 646.883L540.822 645.643ZM541.693 646.883L540.982 647.763L541.693 648.913L542.574 648.113L541.693 646.883ZM542.574 648.113L541.693 648.913L542.895 650.853L543.556 650.183L542.574 648.103V648.113ZM476.268 694.544C475.877 693.774 474.495 694.304 475.256 695.284L475.877 695.774L476.488 695.074L476.268 694.544ZM476.488 695.074L475.877 695.774L479.253 698.484L479.883 698.987L480.334 698.424C479.333 697.394 477.76 695.754 476.488 695.074Z" fill="#E0A878"></path>
<path d="M291.491 662.903C291.531 661.243 290.599 661.033 289.087 661.163C287.765 661.273 287.154 661.983 287.224 663.513C286.663 663.593 285.762 663.603 285.371 663.103C284.079 661.503 280.974 663.243 279.271 663.433C277.539 661.413 277.729 658.043 276.286 656.803C274.534 655.293 270.898 654.023 268.534 655.263C264.708 657.263 263.857 663.103 265.73 666.813L249.033 670.743C249.113 667.733 252.158 668.013 252.849 666.983C254.872 663.983 256.535 663.323 259.58 661.453C256.144 659.743 254.842 657.963 253.249 654.733C255.683 652.883 259.129 652.583 262.424 652.143C263.766 651.963 263.085 650.723 263.386 650.403C263.836 649.923 265.199 649.763 265.569 649.643C265.269 650.273 265.489 650.883 266.07 651.253C266.591 651.593 267.402 651.273 267.542 650.743C267.673 650.253 267.603 649.533 267.913 648.943L270.297 648.703C270.267 649.763 271.068 650.383 271.839 650.133L274.574 649.223C276.777 648.483 279.562 648.623 279.872 646.013L285.01 644.483L313.096 637.713C340.019 631.222 365.961 624.582 393.325 619.812L480.224 604.642C523.464 598.342 565.972 593.162 609.422 590.432L609.532 613.472C572.783 614.972 537.997 619.242 501.999 623.362L440.29 632.702L414.549 637.113L385.823 642.443C364.749 646.353 344.446 650.303 323.613 655.273L291.501 662.933L291.491 662.903Z" fill="#E0A878"></path>
<path d="M152.223 660.603L170.973 668.803L203.946 688.783L239.844 714.904L271.355 732.704C273.117 733.704 274.99 734.224 277.585 734.374L295.634 735.424C305.92 736.024 316.016 736.254 325.602 738.724C340.165 742.464 353.427 750.224 366.317 758.604L390.576 774.315C389.675 782.455 382.784 791.465 384.336 806.575C332.743 806.755 281.501 809.325 229.588 814.195C204.537 817.455 180.949 821.016 156.58 826.406C142.498 829.516 129.447 833.216 116.386 839.936C100.971 817.695 86.8782 796.215 75.0692 772.495C59.3039 740.824 46.8939 708.223 39.2416 674.263L33.9531 650.832C58.7229 646.342 83.2323 645.772 107.842 649.612C123.357 652.032 138.401 654.552 152.213 660.593L152.223 660.603Z" fill="#7E7E54"></path>
<path d="M886.547 699.553C886.818 700.063 886.447 700.404 885.996 700.514C885.365 700.654 884.915 700.414 884.544 700.404C884.664 700.054 884.734 699.084 884.454 698.784C884.003 698.303 882.701 698.083 881.529 698.153L878.254 698.363C877.633 698.403 877.162 699.333 877.523 700.243L874.498 700.363C874.648 699.903 874.678 699.133 874.478 698.813C874.278 698.493 873.376 698.123 872.605 698.093L850.469 697.413L817.016 695.623L832.1 688.953C843.618 683.863 855.798 685.063 867.397 689.373C874.478 692.003 884.674 694.193 886.567 699.544L886.547 699.553Z" fill="#E0A878"></path>
<path d="M267.632 668.273L267.642 670.233L249.062 673.394L248.441 672.574L267.632 668.273Z" fill="#EFE4D4"></path>
<path d="M809.504 765.255C809.804 764.605 810.045 763.915 810.045 763.275L823.617 763.585C819.24 766.435 814.221 765.025 809.504 765.255Z" fill="#EFE4D4"></path>
<path d="M950.687 630.273C950.267 634.983 950.688 639.673 948.975 644.383L948.734 630.263H950.687V630.273Z" fill="#EFE4D4"></path>
<path d="M291.491 662.903L287.224 663.513C287.154 661.983 287.765 661.273 289.087 661.163C290.6 661.033 291.531 661.243 291.491 662.903Z" fill="#E0A878"></path>
<path d="M766.352 708.163C766.422 707.933 766.652 707.553 766.512 707.133L777.88 699.273C778.361 699.103 778.812 699.143 779.252 699.573L766.352 708.163Z" fill="#EFE4D4"></path>
<path d="M325.595 738.724C316.009 736.264 305.913 736.024 295.627 735.424L277.578 734.374C274.984 734.224 273.11 733.694 271.348 732.704C276.927 721.674 283.507 710.964 293.053 702.884C312.163 686.713 338.025 686.203 356.494 704.234C343.684 708.574 335.06 716.714 329.431 728.064C327.708 731.544 324.874 734.684 325.595 738.724Z" fill="#C77F4A"></path>
<path d="M905.536 661.263L906.848 661.243L906.598 670.833L916.614 670.153C918.547 670.023 919.969 670.343 920.65 672.273L902.371 671.953C903.212 670.613 905.496 670.433 905.496 669.603L905.526 661.273L905.536 661.263Z" fill="#E0A878"></path>
<path d="M279.861 646.003C279.541 648.613 276.756 648.473 274.563 649.213L271.828 650.123C271.057 650.383 270.256 649.753 270.286 648.693L279.871 645.993L279.861 646.003Z" fill="#E0A878"></path>
<path d="M267.892 648.942C267.581 649.532 267.652 650.252 267.521 650.742C267.381 651.272 266.57 651.592 266.049 651.252C265.468 650.882 265.248 650.272 265.548 649.642L267.892 648.942Z" fill="#E0A878"></path>
<path d="M214.477 687.304C214.527 687.914 214.547 689.344 213.486 689.764L184.779 668.923L165.559 657.613L185.37 654.383L186.502 654.183C190.729 653.443 195.086 652.753 199.343 652.383L201.747 652.173L213.726 650.043L214.718 662.593L214.477 687.284V687.304Z" fill="#E0A878"></path>
<path d="M944.129 573.932L928.464 557.961C927.422 557.821 926.871 559.511 926.401 560.011L924.447 562.042L915.433 571.142L912.478 574.062C909.433 577.072 906.729 580.582 903.574 583.432L902.582 584.322C900.469 584.782 899.888 586.762 900.038 589.222L901.33 609.482L859.513 604.952C858.902 604.882 858.031 604.732 857.37 605.172C852.732 604.152 848.245 602.892 843.427 602.852L840.442 602.822L831.698 601.922C828.373 601.582 825.338 599.812 822.293 600.902C821.843 601.062 820.931 600.942 820.47 601.352C819.208 599.942 817.135 600.112 815.452 599.872C814.29 599.702 813.479 600.152 812.467 600.532C812.017 598.832 810.464 598.722 808.541 598.502L785.354 595.852C783.331 595.622 781.398 595.512 779.535 596.522C779.505 595.902 778.673 594.832 777.892 594.652C777.461 594.552 777.041 594.632 776.6 595.162C774.577 594.412 772.563 594.492 770.48 594.682C769.639 594.752 768.236 594.122 767.385 593.882C765.712 593.402 764.18 593.532 762.517 593.662C761.626 593.732 760.274 592.942 759.372 592.932H756.307L744.298 591.922C743.206 591.832 741.944 592.232 740.852 591.732C739.019 590.882 736.986 590.782 734.492 590.952C738.158 580.722 743.757 572.492 753.443 576.262C752.231 570.522 754.805 566.132 758.941 562.941C764.591 558.581 771.432 560.481 776.97 562.231C782.559 556.431 791.684 555.151 798.275 559.731C798.856 560.131 799.987 560.841 800.358 561.451C801.76 563.812 803.112 567.652 803.223 570.992C811.967 570.442 819.128 572.622 820.651 580.962C825.088 576.842 830.667 576.132 836.416 578.502C840.703 580.272 843.878 583.842 844.97 589.542C846.272 585.502 851.019 586.392 852.452 584.902C854.235 582.912 854.104 579.282 856.448 577.802C858.101 576.762 860.645 576.772 862.909 576.682C865.312 572.802 869.609 570.932 874.307 571.542C879.004 572.152 882.69 573.492 885.134 577.342C885.565 575.042 886.236 573.842 887.558 572.682L879.635 568.222L879.605 504.97C880.917 505.35 881.749 503.9 882.54 503.63C886.226 502.37 890.513 502.61 894.059 504.45L894.93 500.49C896.843 496.83 900.259 494.16 903.574 493.59C908.011 492.83 912.428 493.41 915.092 496.71C918.428 500.83 918.047 506.03 917.546 511.531C921.973 508.25 928.073 508.27 931.068 512.741C934.063 517.211 933.452 522.761 931.809 527.611C937.158 526.621 941.325 527.501 943.929 530.511C946.533 533.521 946.353 537.421 944.229 541.541C948.005 541.931 950.509 543.341 951.611 546.391C953.043 550.321 950.95 554.801 950.069 557.981C952.823 559.721 957 561.891 956.759 566.282L955.698 585.592L944.129 573.942V573.932Z" fill="#7E7E54"></path>
<path d="M594.036 566.402C594.126 567.442 594.436 568.422 594.887 569.352C594.997 569.582 594.957 570.012 594.937 570.262C594.897 570.752 594.717 571.332 595.238 572.712C598.383 572.032 601.257 572.052 604.112 572.402C604.212 572.602 604.242 572.892 604.142 573.082C603.841 573.632 604.272 574.252 604.613 574.242L606.235 574.172L607.027 574.132C606.876 574.392 606.796 575.072 606.866 575.372C607.377 577.542 608.689 579.372 608.569 582.792L594.036 582.282C592.934 582.242 592.724 583.682 593.064 584.232C560.682 586.062 528.661 590.142 495.918 595.082V573.242C497.01 573.142 498.352 572.772 499.484 571.832C506.184 566.282 515.119 566.582 521.95 572.462C523.022 567.482 525.566 564.352 529.262 562.882C533.448 561.212 537.625 561.032 542.192 563.182C540.94 556.931 542.473 551.351 547.491 548.251C552.228 545.321 558.569 545.071 563.276 549.531C567.773 546.841 573.042 546.611 576.728 549.191C581.265 552.361 582.457 557.781 580.694 563.072C586.494 561.462 590.48 563.312 594.026 566.392L594.036 566.402Z" fill="#7E7E54"></path>
<path d="M190.218 522.801L190.328 530.261L190.368 534.271L190.408 565.242L190.218 578.622C185.871 573.732 181.173 571.012 174.953 570.582C182.676 557.761 183.627 546.631 176.546 534.471C177.277 533.461 178.108 532.751 178.659 532.241L180.572 530.461C182.756 528.431 185.961 527.071 187.063 524.081C188.144 523.971 189.246 523.191 190.218 522.811V522.801Z" fill="#2E4450"></path>
<path d="M646.151 584.361C640.401 584.101 634.883 583.221 629.153 583.241L621.121 583.271H617.104H615.121C614.921 581.131 614.77 579.011 615.882 577.151C617.845 577.321 616.142 579.171 616.213 582.191L645.83 582.371C646.331 582.521 646.341 584.261 646.151 584.361Z" fill="#C77F4A"></path>
<path d="M610.002 581.222L609.892 583.162C609.882 583.332 609.672 583.662 610.012 584.162C606.236 585.292 603.602 582.542 601.989 584.172L593.075 584.252C592.734 583.692 592.945 582.262 594.046 582.302L608.58 582.812C608.71 579.392 607.398 577.562 606.877 575.392C609.401 576.122 610.142 578.832 610.002 581.232V581.222Z" fill="#7E7E54"></path>
<path d="M610.011 584.162C608.669 586.232 604.032 585.662 601.988 584.172C603.601 582.532 606.235 585.292 610.011 584.162Z" fill="#F2EFE7"></path>
<path d="M155.241 501.23L156.192 508.24C155.581 518 151.294 526.26 145.906 534.241C149.732 532.301 152.957 531.501 156.262 530.321C157.174 530.001 158.376 530.411 159.187 530.371C167.821 529.971 174.251 535.661 175.253 544.491C176.575 556.151 172.398 566.251 165.778 576.301C173.62 574.591 181.202 574.991 186.18 580.542C191.88 586.882 190.998 595.862 186.801 603.182C194.243 601.012 196.968 607.102 199.812 601.892C200.123 601.492 201.144 601.162 201.255 600.432C208.256 596.682 216.399 595.922 223.821 600.162C229.861 603.612 234.458 610.122 234.248 618.372C240.237 616.012 245.396 616.982 249.863 620.342C253.909 623.392 256.103 628.382 255.472 634.333C258.607 633.773 261.211 633.653 263.425 635.753C264.807 637.063 266.489 639.363 266.71 642.473L229.55 649.923C225.444 650.033 221.527 645.353 218.282 643.603L153.408 651.833L117.4 644.333L111.37 642.913C86.0395 639.303 60.4884 640.523 35.2278 644.353C33.8657 643.893 33.1946 643.563 32.864 641.623C27.846 612.832 26.0932 584.062 27.6356 554.941C28.0864 546.421 39.6049 546.801 49.6911 548.891C41.2976 538.901 35.4983 528.771 35.6786 516.76C35.7687 510.76 38.2527 504.93 44.4126 503.6C50.7828 502.22 56.3117 505.03 62.6319 507.81C56.1915 494.23 50.863 474.91 61.8807 468.949C68.4112 465.409 75.4925 468.839 80.741 474.789C79.9898 462.819 82.5239 448.989 92.8304 448.319C102.476 447.689 109.447 459.039 109.337 471.709C112.212 467.589 115.657 464.309 119.884 464.029C124.431 463.729 128.738 466.649 130.301 471.299C133.305 480.26 132.073 489.38 128.277 498.76C133.556 494.75 138.704 491.97 145.285 492.39C150.633 492.74 154.429 496.44 155.261 501.24L155.241 501.23ZM144.854 534.261L144.353 534.761L144.854 535.261L145.355 534.761L144.854 534.261Z" fill="#7E7E54"></path>
<path d="M606.247 574.182L604.624 574.252C604.274 574.262 603.843 573.642 604.154 573.092C604.975 573.192 605.736 573.552 606.257 574.182H606.247Z" fill="#7E7E54"></path>
<path d="M594.949 570.261C594.969 570.011 595.009 569.571 594.898 569.351C596.231 568.961 596.301 570.491 594.949 570.261Z" fill="#F2EFE7"></path>
<path d="M646.151 584.361C646.342 584.261 646.332 582.521 645.831 582.371L616.213 582.191C616.143 579.171 617.846 577.321 615.883 577.151C618.687 572.431 624.126 569.241 629.935 571.411C629.004 565.001 632.069 560.701 635.755 557.481C640.272 553.541 646.803 557.331 650.949 556.111C656.208 554.571 659.393 548.951 666.664 551.281C670.821 552.611 675.969 554.661 678.383 560.811C683.201 556.361 689.711 555.611 695.07 558.751C699.758 561.501 702.292 566.871 701.671 573.331C706.198 571.121 713.4 571.341 716.364 575.941C718.237 578.841 718.438 579.411 722.214 579.821C726.841 580.321 730.687 585.642 731.689 590.262L679.605 585.852L646.131 584.352L646.151 584.361Z" fill="#7E7E54"></path>
<path d="M327.935 441.999L339.113 444.74L407.683 462.127L410.457 463.974L420.553 474.312L444.381 497.131C448.779 501.341 453.316 504.866 458.474 508.084L499.26 533.544C498.538 535.649 495.474 538.807 492.859 538.519L418.79 513.595L416.757 512.483L413.662 511.579L405.15 509.375L382.503 545.619L375.602 557.039L366.588 557.535H362.08L354.568 558.032L349.7 558.31L346.555 558.032C346.555 558.032 340.806 559.074 337.541 559.521C333.014 560.147 328.546 560.931 323.518 561.011H314.504H309.997C311.599 558.826 322.827 544.388 323.918 542.571L333.634 526.355C336.899 520.903 338.882 515.154 338.932 508.531L339.333 457.927C339.353 455.842 338.692 454.948 337.821 453.776C335.034 452.277 334.113 451.889 332.029 450.787L319.509 444.829L281.45 426.459C280.814 425.829 278.412 423.434 278.446 421.508C278.491 418.881 281.161 416.912 281.449 419.508L292.466 422.983C293.587 423.529 327.384 442.317 327.955 441.96L327.935 441.999Z" fill="#2E4450"></path>
<path d="M361.653 557.531C363.255 557.421 365.128 559.021 368.574 558.011L368.444 617.862L309.99 631.282L309.859 565.321C309.859 564.011 311.292 562.351 310.2 561.021L323.341 560.861L336.893 559.351L346.819 558.031L349.693 558.321L361.653 557.531Z" fill="#EFE4D4"></path>
<path d="M444.945 590.551L432.695 588.361L433.116 569.261C433.346 558.62 431.053 542.61 437.553 541.72C442.782 541 444.414 547.56 444.705 555.24L444.945 590.551Z" fill="#2E4450"></path>
<path d="M413.653 511.23L404.919 508.86L375.592 557.01L361.66 557.52L349.7 558.31C349.6 557.92 349.64 557.24 349.861 556.91C350.111 556.54 350.782 556.21 351.613 556.2L356.912 556.12L354.428 549L364.704 550.32C365.786 550.46 366.888 550.72 367.108 551.34C367.399 552.16 367.519 553.02 367.419 554.79C371.505 555.79 377.175 553.29 377.665 548.51L376.754 543.26L382.503 542.26L403.988 506.42C404.889 504.919 405.2 501.699 407.603 502.409L407.573 506.6C407.553 508.68 413.243 508.18 413.663 511.25L413.653 511.23Z" fill="#2E4450"></path>
<path d="M463.243 588.511L463.151 582.011L462.778 556.511C462.778 552.961 464.545 549.01 468.752 549.56C476.404 550.55 473.189 583.271 473.48 597.851L463.093 595.241L463.243 592.512L463.244 592.511L463.243 588.511Z" fill="#2E4450"></path>
<path d="M418.783 513.26C418.082 513.02 417.161 513.2 416.75 512.15C417.181 511.95 417.561 511 418.282 511.33C419.054 511.68 418.974 512.78 418.783 513.27V513.26Z" fill="#2E4450"></path>
<path d="M420.545 473.689L410.449 463.279C414.355 465.899 418.061 469.649 420.545 473.689Z" fill="#F2EFE7"></path>
<path d="M346.809 558.031L336.883 559.351L336.793 558.001C340.068 557.551 343.594 555.371 346.799 558.031H346.809Z" fill="#2E4450"></path>
<path d="M414.695 604.831L401.664 602.101L401.965 540.34C401.985 536.67 404.118 531.97 407.944 531.79C411.189 531.64 414.455 536.2 414.475 539.77L414.695 604.831Z" fill="#2E4450"></path>
<path d="M435.21 587.331C434.529 585.821 434.759 584.231 434.849 582.771C435.11 582.471 435.35 582.251 435.37 582.241C436.141 583.911 436.151 586.451 435.21 587.331Z" fill="#2E4450"></path>
<path d="M439.765 543.941C438.013 544.211 437.221 544.341 435.949 545.231C436.23 543.421 438.083 542.301 439.765 543.941Z" fill="#2E4450"></path>
<path d="M281.811 294.006L281.431 419.158C280.8 419.128 280.008 419.518 279.838 420.008C279.648 420.558 279.778 421.218 280.008 421.538C279.698 423.248 280.88 425.138 282.322 425.858C283.754 427.858 283.003 429.628 283.003 432.448L282.883 638.162L271.605 641.132C266.617 641.992 271.114 634.462 259.455 631.372C256.641 627.582 255.97 621.862 250.631 618.962C246.264 616.582 242.117 612.782 236.188 615.622C234.826 609.402 233.213 603.351 227.985 599.761C217.278 592.401 201.482 596.211 200.32 598.881C200.12 599.351 200.671 600.201 201.242 600.431C201.142 601.171 200.11 601.491 199.799 601.891C198.527 599.201 195.152 600.721 192.928 599.251C192.878 599.221 192.337 589.011 194.351 582.251C193.019 572.451 191.847 563.311 192.337 553.151C192.588 547.97 193.519 542.96 192.488 538.25C192.838 538.39 193.62 538.43 193.92 538.16C194.421 537.72 194.821 536.31 194.241 535.03C195.342 533.53 192.988 532.14 192.448 534.2L190.364 534.25L190.324 530.24C190.825 530.64 192.357 530.36 192.408 529.28L192.728 521.87L192.968 448.269C192.978 444.768 192.968 440.008 192.968 440.008L197.616 431.838L197.886 316.396L201.552 313.686L281.821 293.976L281.811 294.006ZM262.56 393.717L262.45 346.257C262.43 338.976 260.146 331.826 254.918 331.606C247.787 331.296 245.863 339.976 245.884 349.267L246.014 401.188L260.557 398.198C261.759 397.948 262.65 395.558 262.55 393.717H262.56ZM218.469 406.308C219.772 407.758 222.276 407.238 224.89 406.518C227.003 405.938 231.741 406.338 233.193 403.698L233.554 346.277C233.554 345.087 231.911 344.897 231.44 345.267C231.31 344.467 231.05 343.737 230.909 342.997C230.238 339.356 227.374 335.116 222.826 336.746C218.8 338.186 216.907 343.067 216.897 347.427L216.777 405.068C216.777 406.088 218.119 406.208 218.469 406.298V406.308ZM243.97 458.439L244.682 437.238C244.722 436.168 243.42 435.788 243.229 435.468C242.077 433.478 241.537 429.988 238.942 428.978C235.276 427.548 232.091 431.028 232.041 434.738L231.711 460.079L243.95 458.439H243.97ZM235.637 488.829C232.702 490.529 231.911 493.329 231.841 496.679L231.44 517.03C231.42 518.16 232.252 518.37 233.393 518.24L242.939 517.16L242.298 493.449C242.248 491.639 241.046 490.069 240.064 489.209C238.752 488.069 237.159 487.939 235.627 488.819L235.637 488.829Z" fill="#EFE4D4"></path>
<path d="M220.59 248.245L246.722 133.283L249.575 122.002C250.747 115.542 253.643 102.242 253.643 102.242L256.086 91.0012L258.915 79.501L266.404 86.5317L268.908 122.422L282.039 268.685C282.64 275.395 283.792 282.265 288.509 286.426L299.297 295.936C293.47 295.505 289.123 292.075 283.955 289.505L199.056 309.266C198.385 310.536 197.784 312.886 196.842 313.156C195.58 313.506 193.837 312.996 192.155 312.286C189.981 312.826 189.931 309.646 192.235 310.146L205.816 296.656C210.895 291.616 213.789 285.835 215.322 278.865L221.091 252.655C221.502 250.805 222.053 249.385 220.59 248.245Z" fill="#2E4450"></path>
<path d="M330.04 310.166C328.498 310.226 326.465 310.836 326.845 312.476L327.586 315.736C327.827 316.806 325.974 317.966 324.561 319.096L329.019 323.176L281.823 294.016L201.554 313.726C196.986 314.846 192.179 315.786 187.922 312.356C200.532 299.626 209.366 295.646 213.393 278.276L220.854 247.005C222.326 248.145 222.266 251.165 221.855 253.005L215.345 279.005C213.812 285.965 211.409 292.466 206.33 297.506L192.308 310.506C190.004 310.006 190.134 312.546 192.308 312.006C193.991 312.716 195.414 313.506 196.676 313.156C197.617 312.896 198.218 310.536 198.89 309.266L284.006 289.266C289.175 291.826 292.931 295.036 299.131 295.936L288.343 286.426C283.626 282.266 282.474 275.406 281.873 268.685L268.742 122.423L266.238 86.5319L258.915 79.5015L263.083 61.4115C259.527 60.2114 258.405 58.0314 257.704 55.7314C256.692 52.4113 260.228 51.1813 261.089 48.9612L262.161 31.1609C262.331 28.3608 261.33 23.5707 258.375 23.5507L246.165 23.4807C245.815 21.9007 245.865 20.3907 246.005 18.3906L257.524 18.1206C260.158 18.0606 261.71 14.8106 261.7 12.3505L261.68 0.290303C263.333 -0.129705 264.765 -0.129705 266.488 0.240302L266.568 12.3005C266.588 15.7306 269.002 18.2906 272.498 18.3306L282.394 18.4506V23.1407L271.436 23.2307C269.343 23.2507 266.488 25.8108 266.528 28.1608L266.919 49.0012C267.991 50.8313 271.126 52.7213 270.274 55.6714C269.673 57.7514 269.022 59.8814 265.737 61.6115L295.965 196.764L314.165 275.606C315.687 282.206 316.759 288.956 320.305 294.586L330.07 310.116L330.04 310.166Z" fill="#2E4450"></path>
<path d="M301.585 335.256C302.126 335.536 302.878 336.166 303.458 336.216C305.642 340.877 305.712 345.797 305.712 351.317L305.622 424.518L295.866 419.188C298.951 419.298 300.995 420.328 303.619 421.348L303.849 347.197C301.085 346.787 299.011 347.247 296.828 347.957C296.828 346.827 296.718 345.737 295.516 345.267C295.506 342.597 296.397 340.097 297.028 337.536C297.339 337.146 297.529 336.746 297.679 336.306C298.831 335.496 300.213 335.206 301.595 335.256H301.585ZM303.108 341.257L302.607 341.757L303.108 342.257L303.609 341.757L303.108 341.257Z" fill="#2E4450"></path>
<path d="M330.04 310.166L343.712 325.887C334.176 328.837 334.347 328.047 329.008 323.167L324.551 319.086C325.963 317.956 327.826 316.796 327.576 315.726L326.834 312.466C326.464 310.816 328.487 310.216 330.03 310.156L330.04 310.166Z" fill="#2E4450"></path>
<path d="M262.561 393.718C262.662 395.558 261.77 397.948 260.568 398.198L246.025 401.188L245.895 349.267C245.875 339.977 247.798 331.297 254.929 331.607C260.158 331.837 262.441 338.977 262.461 346.257L262.571 393.718H262.561Z" fill="#2E4450"></path>
<path d="M230.92 343.007C230.439 342.917 229.728 343.377 229.607 343.827C229.457 344.367 230.399 345.617 230.399 346.437L230.509 400.178C230.509 400.918 231.09 401.308 231.581 401.268C231.14 402.658 230.799 404.198 228.696 404.548L218.49 406.318C218.139 406.228 216.797 406.118 216.797 405.088L216.917 347.447C216.917 343.087 218.82 338.206 222.847 336.766C227.394 335.146 230.269 339.386 230.93 343.017L230.92 343.007Z" fill="#2E4450"></path>
<path d="M243.239 435.469L243.97 458.44L231.73 460.08L232.061 434.739C232.111 431.029 235.286 427.549 238.962 428.979C241.556 429.989 242.097 433.489 243.249 435.469H243.239Z" fill="#2E4450"></path>
<path d="M231.451 345.276L232.413 351.327L232.523 398.227L231.571 401.258C231.081 401.308 230.51 400.908 230.5 400.168L230.39 346.427C230.39 345.607 229.448 344.356 229.598 343.816C229.718 343.376 230.43 342.916 230.91 342.996C231.051 343.736 231.311 344.476 231.441 345.266L231.451 345.276Z" fill="#2E4450"></path>
<path d="M231.446 517.03L233.533 495.309C233.543 490.619 237.95 489.469 235.646 488.829C237.168 487.949 238.771 488.079 240.083 489.219C241.065 490.079 242.267 491.639 242.317 493.459L242.958 517.169L233.412 518.25C232.271 518.38 231.426 518.16 231.446 517.03Z" fill="#2E4450"></path>
<path d="M231.446 517.03L231.85 496.679C231.92 493.329 232.701 490.519 235.646 488.829C237.95 489.469 233.543 490.619 233.533 495.309L231.446 517.03Z" fill="#2E4450"></path>
<path d="M322.917 351.407C320.303 351.827 322.517 354.127 322.517 355.407L322.667 431.148C321.084 430.668 320.063 430.618 318.741 430.778C315.405 429.108 313.492 428.528 313.492 424.878C314.273 425.178 315.566 424.498 315.566 423.128L315.916 346.927C317.038 344.987 319.822 345.166 321.155 347.127C321.826 348.107 322.386 349.747 322.917 351.417V351.407Z" fill="#2E4450"></path>
<path d="M313.492 424.868L313.682 353.357C313.682 351.037 314.854 348.757 315.916 346.917L315.566 423.118C315.566 424.488 314.273 425.168 313.492 424.868Z" fill="#2E4450"></path>
<path d="M318.73 430.769C320.063 430.609 321.084 430.659 322.657 431.139L322.507 355.398C322.507 354.118 320.293 351.817 322.907 351.397C323.408 352.977 323.658 354.368 323.658 356.258L323.608 433.209L318.73 430.769Z" fill="#2E4450"></path>
<path d="M296.816 347.957L295.854 419.188L295.504 345.267C296.706 345.737 296.826 346.837 296.816 347.957Z" fill="#2E4450"></path>
<path d="M295.855 419.189L296.817 347.957C298.99 347.247 301.074 346.787 303.838 347.197L303.608 421.349C300.984 420.329 298.94 419.299 295.855 419.189Z" fill="#2E4450"></path>
<path d="M303.104 348.262L302.602 348.764L303.104 349.265L303.606 348.764L303.104 348.262Z" fill="#2E4450"></path>
<path d="M791.134 496.3C791.745 496.34 792.807 496.51 793.307 496.02L795.461 496.2C796.262 496.02 797.364 496.05 797.915 496.37C798.766 496.87 798.977 497.91 798.967 499.19L798.686 524.26L798.466 554.201C798.466 555.131 797.514 555.431 797.374 554.871C790.994 549.911 781.839 552.131 776.601 557.941C770.982 555.711 764.431 554.661 758.522 557.831C753.714 560.411 749.727 565.291 749.377 572.041C740.402 570.711 734.743 576.691 733.051 585.841C731.338 580.051 727.652 576.091 721.292 576.471C718.848 570.101 713.239 567.151 706.428 567.561C704.745 561.021 700.338 557.191 695.48 554.091C689.961 550.561 684.142 553.441 679.865 554.431C676.149 550.921 671.291 547.231 666.484 546.341C659.442 545.051 656.287 549.811 650.798 551.421C645.951 552.841 639.1 549.031 633.37 553.831C630.125 556.551 625.888 560.461 625.738 566.731L621.171 567.291C618.957 567.561 617.525 568.751 616.013 570.231L613.939 572.261C612.918 573.261 612.186 574.221 611.455 575.791C610.183 573.391 609.562 572.161 608.19 571.321C607.759 571.061 607.349 570.541 607.028 570.121C605.215 567.711 601.8 567.721 598.434 568.191C597.833 565.381 596.742 563.711 595.139 562.401C592.685 560.391 590.111 558.831 585.884 558.921C586.295 552.761 583.23 547.901 578.502 545.251C573.785 541.98 568.446 542.141 563.097 545.081C557.959 541.351 552.08 541.07 546.361 543.811C536.805 549.161 541.823 559.561 533.37 557.431L533.27 480.819L601.519 484.859L698.645 490.7L759.313 494.06L791.134 496.33V496.3ZM583.811 528.25L583.56 496.46C579.664 492.18 568.957 490.24 565.932 495.67C563.198 505.8 565.571 516.69 564.92 527.72L583.811 528.26V528.25ZM642.765 530.82L642.896 499.5C637.407 494.98 630.426 494.83 624.466 498.49L624.526 530.6L642.765 530.82ZM706.748 534.73L706.698 504.29C701.58 498.2 693.227 497.45 687.838 503.01L688.449 533.84L706.748 534.73ZM772.915 538.36L772.935 507.45C768.037 502.54 760.385 501.17 754.585 505.56L753.974 537.74L772.915 538.36Z" fill="#E0A878"></path>
<path d="M763.516 457.12L764.227 458.49C765.229 458.59 767.032 460.01 766.361 461.51L757.246 461.21C758.618 458.47 760.912 456.97 763.526 457.12H763.516Z" fill="#2E4450"></path>
<path d="M527.979 426.968L528.07 468.269C527.639 468.159 526.958 468.569 526.958 469.319V507.22C526.958 507.98 527.669 508.39 528.09 508.26V525.27C527.318 525.32 526.908 526.03 526.908 527.21V555.331C526.908 556.521 527.318 557.221 528.05 557.261C528.05 558.171 527.919 558.761 527.158 559.381C526.758 559.031 525.095 558.731 525.976 560.351L519.586 566.601C512.044 561.601 502.058 563.301 496.048 569.451L495.337 541.271L506.074 533.59C489.067 519.75 472.23 507.75 453.82 495.83L453.84 435.259L453.87 426.298C454.271 423.498 456.074 421.528 458.718 420.068C476.627 410.108 508.118 410.378 525.265 420.968C527.469 422.328 527.969 424.868 527.969 426.978L527.979 426.968ZM513.045 464.449L513.176 441.209C510.201 437.799 505.543 436.529 501.527 438.819L501.196 462.939L513.035 464.449H513.045ZM513.276 522.12V492.19C509.79 489.36 505.113 489.37 501.537 491.54L501.898 520.96L513.286 522.12H513.276Z" fill="#E0A878"></path>
<path d="M542.923 380.648L542.663 400.188C544.536 400.748 545.798 400.438 546.679 400.248C547.05 400.168 547.931 400.018 548.212 400.248C548.993 400.868 552.088 400.588 551.968 399.548C551.447 394.858 552.138 391.468 552.118 387.378L551.988 376.218L553.42 376.368C553.781 376.408 554.121 377.368 554.091 378.158L553.801 387.288C553.701 390.248 555.433 392.008 558.198 392.168L570.578 392.878C575.245 393.148 582.918 395.788 591.952 393.658L599.104 396.858C605.824 395.758 610.832 396.668 617.223 398.658C619.366 399.328 623.513 397.398 626.007 400.088C631.516 398.458 636.193 399.918 640.801 402.328C645.959 400.688 650.997 400.718 655.224 403.778L662.085 404.478C667.423 404.098 672.071 404.798 676.738 407.218C681.676 405.508 686.444 406.028 690.44 408.948C698.293 409.398 706.045 408.998 713.457 412.258C718.515 409.728 722.892 412.758 727.79 413.508L743.175 415.848L749.555 416.588C753.101 416.998 756.727 415.448 760.363 417.478C767.013 421.189 774.195 415.118 774.415 421.639L692.393 410.908L690.11 410.978C688.718 410.408 686.834 409.978 685.222 409.838C684.06 409.738 682.498 409.388 681.396 409.838L678.171 408.988L675.196 408.938C673.844 408.918 672.542 408.098 671.249 408.068L669.106 408.018C667.193 407.978 665.29 406.818 663.297 406.898L661.083 406.988C659.711 407.038 658.439 406.368 657.147 405.918C655.624 405.388 653.511 405.388 652.179 406.368C651.438 405.208 650.266 404.978 649.134 404.908L645.398 404.698L641.141 403.768C639.739 403.468 638.357 403.538 637.065 404.518C637.075 403.708 636.163 402.838 635.242 402.748C634.621 402.688 634.01 402.808 633.188 403.068C632.577 403.258 631.616 403.118 631.005 402.978L627.078 402.068L624.084 401.928C622.07 401.838 620.187 400.998 618.114 400.968L615.089 400.918C613.667 400.898 612.405 400.098 611.043 400.048L607.066 399.888C605.103 399.808 603.06 398.498 601.077 398.978C600.346 399.158 598.893 398.988 598.182 398.838L594.035 397.988C592.443 397.658 590.5 397.258 589.067 398.358C588.076 397.028 586.443 397.118 585.031 396.928C583.458 396.718 581.475 396.478 580.063 397.378C579.061 395.988 577.419 396.148 576.026 395.908C574.744 395.688 573.172 395.288 571.99 396.058C571.058 394.798 569.366 394.408 567.933 395.158C566.802 394.318 564.308 394.828 563.016 395.248C562.545 394.928 561.834 394.298 561.293 394.228C560.151 394.068 559.039 394.568 558.418 395.708L553.62 404.478L539.898 403.378C540.139 402.198 540.259 401.058 539.768 399.478L524.754 399.918C528.921 408.248 534.269 414.838 540.389 421.229C540.76 425.829 536.733 427.799 533.388 429.909L533.168 476.32L628.09 481.67L641.131 482.38C641.642 482.41 642.613 482.55 643.094 482.74C645.779 483.82 648.763 483.04 652.309 483.24L794.548 491.17C792.294 491.95 790.591 493.87 791.112 496.32L759.291 494.05L698.623 490.69L601.497 484.85L533.248 480.81L533.348 557.421C541.801 559.561 536.783 549.151 546.339 543.801C552.068 541.071 557.937 541.341 563.076 545.071C568.424 542.121 573.763 541.971 578.48 545.241C583.208 547.891 586.273 552.751 585.862 558.911C590.089 558.811 592.663 560.381 595.117 562.391C595.458 563.891 595.117 565.391 594.015 566.411C590.47 563.331 586.473 561.481 580.684 563.091C582.437 557.801 581.255 552.381 576.718 549.211C573.032 546.631 567.763 546.861 563.266 549.551C558.558 545.101 552.208 545.341 547.481 548.271C542.462 551.371 540.93 556.951 542.182 563.201C537.625 561.051 533.448 561.231 529.251 562.901C525.565 564.371 523.021 567.501 521.939 572.481C515.109 566.591 506.174 566.301 499.473 571.851C498.342 572.781 497.009 573.161 495.928 573.261L496.048 569.451C502.058 563.301 512.044 561.601 519.586 566.601L525.976 560.351L527.158 559.381C527.909 558.761 528.049 558.161 528.049 557.261L528.079 525.271V508.26V468.269L527.989 426.969C530.543 427.709 534.91 424.559 533.558 421.789C531.815 418.238 527.549 416.418 523.933 415.398C506.815 410.548 489.568 409.858 471.959 412.418C461.132 413.988 444.846 417.708 447.72 424.159C447.27 424.089 446.789 424.059 446.498 423.839C444.796 422.569 446.959 417.978 448.481 417.198L455.192 413.768C458.578 412.038 462.324 411.578 465.93 410.408C469.535 409.238 473.972 409.708 476.767 407.198C489.477 406.758 501.957 407.518 514.257 409.828L525.145 412.798L526.096 411.318L515.399 392.868C508.518 378.658 504.001 364.217 499.654 349.577C502.709 349.837 499.984 352.707 506.064 356.217C508.628 357.707 503.27 363.517 508.518 370.768C509.249 371.778 512.164 371.988 511.994 372.848L511.072 377.418C512.574 382.358 513.756 387.388 516.611 391.968C518.604 395.168 526.016 397.898 529.472 396.958C533.518 395.868 535.842 394.268 540.229 396.588L541.08 380.688C541.671 380.408 542.553 380.478 542.943 380.638L542.923 380.648ZM526.387 413.488L527.258 412.658C526.467 411.048 524.884 412.728 526.387 413.488Z" fill="#F2EFE7"></path>
<path d="M843.727 380.117C843.988 380.777 844.188 381.737 844.048 382.387C843.497 384.818 848.665 395.018 848.445 394.818C848.805 395.128 849.556 395.148 850.167 394.888L864.511 428.278C867.726 435.768 872.614 442.589 877.541 448.349C873.114 446.289 868.577 444.329 863.869 443.059C865.001 442.049 864.09 440.799 862.768 441.129C850.137 436.189 819.128 438.569 817.585 440.899C817.325 441.299 817.315 442.039 817.435 442.189C817.174 442.569 816.724 442.509 816.403 442.279C814.721 441.069 810.904 441.739 809.462 443.329C808.621 443.239 807.799 443.529 805.746 442.729C810.564 436.539 813.278 429.468 816.193 421.958L829.324 388.088L832.9 377.787L837.016 367.117L841.053 377.717C841.403 378.637 841.524 379.647 842.145 380.087C842.515 380.347 843.266 380.327 843.737 380.117H843.727Z" fill="#2E4450"></path>
<path d="M805.347 439.838C804.295 442.498 802.302 444.538 800.279 447.168C804.105 446.448 807.871 445.308 809.454 443.338C811.818 443.588 814.111 442.848 816.395 442.288C816.715 442.518 817.166 442.578 817.427 442.198C832.691 439.468 848.777 438.998 863.861 443.068C868.569 444.338 873.106 446.298 877.533 448.358L879.036 449.348C879.616 449.738 879.566 450.788 879.486 451.388C876.221 448.968 872.385 448.338 868.609 447.018L866.425 446.248L864.542 446.148C852.753 443.548 840.403 442.548 828.444 444.118C827.793 443.988 827.122 443.988 826.451 444.138C824.738 444.098 822.955 444.168 821.393 444.958C812.609 446.118 797.234 449.588 796.723 453.928C796.583 455.098 797.244 456.478 798.706 457.128C800.68 458.008 802.613 457.688 804.235 457.088L804.446 526.229L803.634 554.36C802.773 554.86 801.261 554.6 801.491 553.74L802.262 550.81L802.282 480.259C800.559 483.949 801.781 488.399 799.588 491.319L799.147 461.908C795.872 461.008 793.668 459.288 792.406 457.668C790.523 455.248 792.507 451.568 792.306 449.518L783.422 436.468C786.938 437.168 789.762 440.448 789.862 444.668L800.179 446.408C800.89 442.888 802.513 440.398 805.357 439.878L805.347 439.838Z" fill="#F2EFE7"></path>
<path d="M828.429 444.11C829.26 445.18 830.593 445.43 832.355 445.37C841.44 445.11 850.094 444.92 858.898 446.9C861.132 447.4 863.115 447.79 864.537 446.13L866.42 446.23C866.38 446.74 866.38 447.34 866.52 447.74C866.681 448.19 867.322 448.57 867.983 448.26C868.423 448.06 868.714 447.56 868.604 447C872.38 448.33 876.206 448.95 879.481 451.37C880.563 452.17 881.595 452.95 882.366 454.19L882.346 455.31C881.625 455.36 880.403 456.83 880.723 457.46L879.181 457.64L875.615 457.45L874.613 457.06C874.483 457.01 874.193 457 874.103 456.85C872.61 454.28 869.836 452.2 866.35 451.14C847.39 445.36 826.887 446.08 808.267 452.84C806.043 453.65 804.2 455.09 804.21 457.06C802.588 457.66 800.654 457.98 798.681 457.1C797.219 456.45 796.558 455.07 796.698 453.9C797.209 449.56 812.584 446.09 821.368 444.93C821.698 446.4 823.291 446.72 824.923 446.31C825.775 446.1 826.506 445.35 826.426 444.11C827.097 443.97 827.768 443.97 828.419 444.09L828.429 444.11Z" fill="#2E4450"></path>
<path d="M527.98 426.968C527.98 424.858 527.48 422.318 525.276 420.958C508.118 410.368 476.628 410.098 458.729 420.058C456.085 421.528 454.282 423.488 453.881 426.288L448.723 425.398C448.773 424.888 448.122 424.208 447.711 424.138C444.847 417.688 461.133 413.968 471.95 412.398C489.559 409.848 506.806 410.528 523.924 415.378C527.54 416.398 531.807 418.218 533.549 421.768C534.902 424.528 530.545 427.688 527.98 426.948V426.968Z" fill="#2E4450"></path>
<path d="M839.3 353.218C836.936 360.338 838.489 362.368 838.539 364.368C838.559 365.058 838.128 365.978 838.539 366.998L843.727 380.118C843.256 380.328 842.495 380.358 842.135 380.088C841.524 379.648 841.393 378.638 841.043 377.718L837.006 367.118L832.89 377.788L829.314 388.088L816.183 421.959C813.278 429.459 810.554 436.539 805.736 442.729C807.789 443.519 808.611 443.239 809.452 443.329C807.87 445.309 804.103 446.449 800.277 447.159C802.301 444.529 804.294 442.489 805.345 439.829C805.406 439.679 805.345 439.409 805.345 439.259C808.471 437.279 809.723 433.699 811.155 429.939L835.193 366.848L835.965 360.058C836.165 358.268 834.683 355.648 834.472 354.158C834.943 353.638 835.484 352.818 836.175 352.518C837.437 351.968 838.499 353.208 839.29 353.218H839.3Z" fill="#2E4450"></path>
<path d="M494.565 332.777L498.011 346.977C495.477 345.047 495.737 339.937 494.395 339.727C493.724 339.627 492.292 340.337 491.601 340.437C491.16 340.497 490.769 340.837 490.799 341.077C490.909 342.067 487.935 342.807 487.574 343.777L472.169 384.568C468.694 393.758 464.958 402.138 458.267 410.238C462.524 410.568 465.489 408.008 465.929 410.398C462.333 411.568 458.577 412.028 455.192 413.758C455.042 413.268 454.892 412.698 454.621 412.448C458.798 408.568 461.933 403.158 463.866 398.098C464.086 397.528 464.797 396.778 465.028 396.298L468.884 388.268C469.966 386.018 471.057 384.098 470.877 381.898C472.74 381.618 472.39 379.438 472.89 378.288C479.751 362.437 485.15 346.077 489.808 329.007C490.308 327.167 489.998 325.226 489.187 324.126C489.758 321.886 491.54 319.266 489.637 316.666C488.526 315.146 488.125 313.636 488.986 312.706C490.288 311.306 492.061 311.306 492.963 311.906C496.448 314.256 489.607 317.636 493.263 322.776C491.21 326.047 493.794 329.487 494.585 332.767L494.565 332.777ZM490.99 339.627C490.849 338.017 492.552 337.047 493.714 336.377C493.103 333.707 492.342 330.807 491.18 328.497L489.147 337.687C488.806 338.367 488.826 339.157 489.036 339.567C489.227 339.937 489.848 340.267 490.288 340.297L490.99 339.627Z" fill="#2E4450"></path>
<path d="M834.482 354.157C834.683 355.637 836.175 358.267 835.975 360.057L835.203 366.847L811.165 429.939C809.732 433.709 808.48 437.289 805.355 439.259C806.487 436.559 807.038 433.419 809.001 430.609L826.69 385.328C826.109 384.198 825.728 382.558 825.638 381.818C825.548 381.078 827.711 380.738 828.252 379.838C830.616 375.928 833.07 370.018 833.411 365.487L830.376 363.577C828.463 362.377 834.092 359.467 834.322 358.627C834.693 357.287 832.479 355.847 832.77 354.857C832.97 354.187 834.102 354.347 834.492 354.157H834.482Z" fill="#F2EFE7"></path>
<path d="M551.997 376.217L552.127 387.377C552.147 391.467 551.466 394.847 551.977 399.547C552.087 400.587 549.002 400.867 548.221 400.247L547.91 375.817C549.933 375.687 550.985 376.127 551.997 376.227V376.217Z" fill="#E0A878"></path>
<path d="M546.688 400.247C545.807 400.437 544.545 400.747 542.672 400.187L542.932 380.647C544.074 379.517 543.884 377.367 546.458 376.207C546.478 384.467 547.63 392.337 546.688 400.247Z" fill="#E0A878"></path>
<path d="M463.843 398.099C461.91 403.159 458.775 408.569 454.598 412.449C454.107 411.989 454.337 410.989 455.63 410.609C454.237 404.569 458.043 398.839 463.843 398.099Z" fill="#F2EFE7"></path>
<path d="M499.292 347.067L498 346.977L494.555 332.776C496.057 335.586 499.092 336.786 501.145 338.797C503.649 341.257 501.576 345.757 499.292 347.067Z" fill="#F2EFE7"></path>
<path d="M472.87 378.287C471.998 378.437 471.658 377.377 472.519 376.977L475.815 368.237C475.815 367.127 475.304 365.697 474.763 364.357C479 363.267 477.938 359.827 478.869 357.517C481.844 350.196 486.852 337.996 484.799 336.146C484.198 335.596 483.477 333.106 484.038 332.896L487.093 331.716C488.926 329.436 488.555 326.436 489.146 324.126C489.957 325.226 490.268 327.166 489.767 329.006C485.12 346.086 479.721 362.447 472.85 378.287H472.87Z" fill="#F2EFE7"></path>
<path d="M470.857 381.897C471.037 384.088 469.946 386.018 468.864 388.268L465.008 396.298C465.759 389.868 467.221 382.447 470.857 381.897Z" fill="#F2EFE7"></path>
<path d="M850.16 394.888C849.549 395.148 848.797 395.128 848.437 394.818C848.667 395.008 843.499 384.818 844.04 382.388L850.15 394.888H850.16Z" fill="#2E4450"></path>
<path d="M782.709 434.688C779.794 431.808 776.92 426.368 775.367 422.208C778.482 422.478 778.743 427.868 782.028 429.508C783.6 430.298 784.622 430.888 784.422 432.768C784.342 433.518 783.791 434.438 782.709 434.688Z" fill="#F2EFE7"></path>
<path d="M453.881 426.298L453.851 435.258C449.494 435.548 454.863 429.938 448.723 425.408L453.881 426.298Z" fill="#F2EFE7"></path>
<path d="M608.186 571.301C607.966 572.331 607.535 573.291 607.034 574.131L606.243 574.171C605.722 573.541 604.971 573.181 604.139 573.081C604.25 572.891 604.21 572.591 604.109 572.401L607.014 570.091C607.335 570.521 607.745 571.031 608.176 571.291L608.186 571.301Z" fill="#F2EFE7"></path>
<path d="M583.808 528.251L564.918 527.711C565.569 516.681 563.185 505.79 565.929 495.66C568.944 490.23 579.651 492.18 583.558 496.45L583.808 528.241V528.251ZM572.67 507.22V496.21C571.318 495.48 567.983 496.38 568.003 498.19L568.093 507.18L572.67 507.22ZM579.061 497.96C578.259 497.42 577.127 496.34 575.655 496.75L575.926 506.47C575.956 507.7 578.71 508.16 579.541 507.62C580.893 506.74 581.094 499.32 579.061 497.96ZM568.023 509.63L567.822 524.921L572.921 524.991L573.121 509.7L568.023 509.63ZM575.735 509.66L575.635 525.111L580.363 525.141L580.463 509.69L575.735 509.66Z" fill="#F2EFE7"></path>
<path d="M795.45 496.21L793.297 496.03C793.337 495.51 793.467 494.53 793.978 494.28C794.519 494.02 795.14 494.39 795.21 494.82L795.45 496.21Z" fill="#F2EFE7"></path>
<path d="M764.231 458.489L763.52 457.119C763.64 457.459 764.211 457.859 764.231 458.489Z" fill="#EFE4D4"></path>
<path d="M770.289 467.249L770.419 473.339C770.439 474.129 770.129 474.959 769.818 475.189C769.518 475.409 768.857 475.449 768.436 475.349C768.506 470.619 767.725 465.809 769.407 461.089C767.374 460.089 766.843 458.959 766.312 457.879C771.26 458.749 775.958 455.069 775.107 459.029C772.633 461.379 770.229 464.119 770.299 467.249H770.289Z" fill="#2E4450"></path>
<path d="M692.113 411.008C692.113 411.008 775.913 419.588 774.241 422.508L792.27 449.509L793.271 458.509L799.281 462.009V492.01L532.853 476.509L533.354 430.008C533.354 430.008 541.366 423.008 540.365 421.508C539.363 420.008 531.35 411.508 531.35 411.508L524.84 400.008L539.864 399.508L540.365 401.508V403.008L553.387 404.008L558.439 395.688C559.06 394.548 560.181 394.048 561.313 394.208C561.854 394.278 562.565 394.908 563.036 395.228L692.113 411.008Z" fill="#2E4450"></path>
<path d="M761.333 453.269L762.345 453.259L762.405 454.379L760.382 454.389L759.18 453.209L761.333 453.269Z" fill="#2E4450"></path>
<path d="M762.347 453.259H761.345C761.185 452.079 762.517 452.079 762.347 453.259Z" fill="#2E4450"></path>
<path d="M763.725 454.509L762.723 457.009C760.109 456.859 758.609 458.469 757.237 461.209L766.352 461.509C767.023 459.999 763.725 457.099 762.723 457.009L763.725 454.509C763.725 454.509 768.232 459.009 769.397 461.089C767.714 465.809 768.505 470.619 768.425 475.349L768.315 482.249L768.195 485.189H767.303L759.29 485.139C758.259 484.329 756.135 484.349 754.903 483.969L754.383 465.159C754.352 463.769 754.232 462.709 753.331 462.249C752.87 461.869 752.449 461.239 752.54 460.779C752.66 460.159 753.661 459.609 754.212 459.169L760.372 454.379L763.725 454.509ZM764.198 471.989C765.851 470.989 764.449 466.589 762.415 466.239C759.942 465.819 759.26 468.069 758.449 469.069C757.447 470.299 758.209 472.889 759.831 472.369C760.212 472.039 761.614 470.219 761.845 470.619C762.075 471.019 762.415 473.059 764.188 471.979L764.198 471.989Z" fill="#F2EFE7"></path>
<path d="M528.089 508.26C527.658 508.39 526.957 507.98 526.957 507.22V469.32C526.957 468.57 527.648 468.16 528.079 468.27L528.099 508.26H528.089Z" fill="#E0A878"></path>
<path d="M528.048 557.25C527.317 557.21 526.906 556.5 526.906 555.32V527.2C526.906 526.02 527.317 525.31 528.078 525.26L528.048 557.25Z" fill="#E0A878"></path>
<path d="M527.17 559.381L525.988 560.351C525.107 558.721 526.77 559.021 527.17 559.381Z" fill="#E0A878"></path>
<path d="M514.24 409.828C501.94 407.518 489.46 406.758 476.75 407.198C478.693 405.458 492.956 404.678 501.92 406.168L515.442 408.418C515.382 408.798 514.931 409.398 514.24 409.828Z" fill="#2E4450"></path>
<path d="M498.012 346.977L499.304 347.067L499.644 349.577C503.991 364.217 508.509 378.658 515.39 392.868L526.087 411.318L527.269 412.658C526.477 411.048 524.895 412.728 526.397 413.488C525.766 412.678 525.275 412.808 525.135 412.798L514.248 409.828C514.939 409.398 515.39 408.798 515.45 408.418L501.928 406.168C492.964 404.678 478.701 405.458 476.758 407.198C473.963 409.708 469.406 409.268 465.92 410.408C465.479 408.018 462.515 410.578 458.258 410.248C464.949 402.148 468.695 393.768 472.16 384.578L487.565 343.787C487.936 342.817 490.91 342.067 490.79 341.087L490.289 340.317C489.859 340.287 489.238 339.957 489.037 339.587C488.827 339.177 488.797 338.387 489.147 337.707L491.181 328.517C492.343 330.827 493.104 333.727 493.715 336.397C492.553 337.067 490.84 338.037 490.99 339.647L491.591 340.457C492.293 340.357 493.725 339.647 494.386 339.747C495.738 339.957 495.468 345.067 498.002 346.997L498.012 346.977Z" fill="#2E4450"></path>
<path d="M863.859 443.058C848.775 438.988 832.699 439.458 817.425 442.188C817.304 442.038 817.304 441.298 817.575 440.898C819.117 438.558 850.127 436.188 862.757 441.128C864.08 440.788 864.991 442.048 863.859 443.058Z" fill="#2E4450"></path>
<path d="M816.394 442.28C814.111 442.85 811.817 443.58 809.453 443.33C810.895 441.74 814.702 441.06 816.394 442.28Z" fill="#2E4450"></path>
<path d="M874.116 456.86C872.754 457.52 872.474 458.35 872.474 460.29L872.524 562.122C872.524 562.982 873.185 563.322 873.535 563.252C873.405 564.552 873.666 566.282 873.385 568.082C868.678 567.662 864.861 569.222 862.247 573.172C857.51 572.162 852.732 573.532 851.37 578.192C851.029 580.322 850.458 582.322 848.135 583.942C842.816 574.542 832.179 570.192 822.353 575.822L820.36 571.252C817.295 567.532 812.317 566.302 807.379 566.582L804.414 561.102C803.413 559.252 803.573 556.441 803.633 554.331L804.444 526.201L804.234 457.06C804.234 455.09 806.067 453.65 808.291 452.839C826.91 446.079 847.423 445.359 866.374 451.139C869.859 452.199 872.624 454.28 874.126 456.85L874.116 456.86ZM853.744 490.36L853.273 469.46C853.213 466.91 849.066 466.03 847.333 466.67C845.751 467.26 842.445 467.59 842.435 470.05L842.335 488.9L853.744 490.36ZM854.114 539.421L853.313 514.321C851.62 511.711 844.138 511.571 842.726 514.251L842.315 538.861L854.114 539.421Z" fill="#E0A878"></path>
<path d="M874.613 457.069L874.533 458.259L874.833 459.729C873.621 462.929 872.74 467.349 873.631 471.239C874.953 476.979 873.892 481.759 873.862 487.4L873.691 516.32C873.661 521.21 875.384 526.25 874.452 531.37C873.1 538.86 873.251 545.751 874.462 553.381L873.511 563.271C873.16 563.351 872.499 563.011 872.499 562.141L872.449 460.309C872.449 458.369 872.73 457.539 874.092 456.879C874.172 457.019 874.472 457.039 874.603 457.089L874.613 457.069Z" fill="#E0A878"></path>
<path d="M879.18 457.639C880.382 459.069 878.88 459.339 878.269 459.579C876.947 460.109 875.915 460.229 874.843 459.719L874.543 458.249L875.625 457.449L879.19 457.639H879.18Z" fill="#F2EFE7"></path>
<path d="M864.53 446.13C863.108 447.78 861.124 447.4 858.891 446.9C850.087 444.92 841.433 445.11 832.348 445.37C830.585 445.42 829.243 445.18 828.422 444.11C840.381 442.53 852.731 443.54 864.52 446.14L864.53 446.13Z" fill="#2E4450"></path>
<path d="M826.437 444.119C826.517 445.359 825.786 446.109 824.935 446.319C823.292 446.729 821.709 446.409 821.379 444.939C822.941 444.149 824.714 444.079 826.437 444.119Z" fill="#2E4450"></path>
<path d="M868.605 446.999C868.715 447.57 868.415 448.06 867.984 448.26C867.323 448.57 866.682 448.19 866.522 447.74C866.381 447.34 866.381 446.74 866.421 446.229L868.605 446.999Z" fill="#2E4450"></path>
<path d="M874.543 458.259L874.613 457.069L875.615 457.459L874.543 458.259Z" fill="#E0A878"></path>
<path d="M635.335 512.648L635.199 527.388L639.356 527.426L639.491 512.686L635.335 512.648Z" fill="#C77F4A"></path>
<path d="M627.822 512.758L627.598 527.007L632.054 527.077L632.279 512.828L627.822 512.758Z" fill="#C77F4A"></path>
<path d="M638.628 501.341C639.569 502.431 639.75 509.251 639.229 510.511C638.838 511.451 635.753 511.111 635.533 510.111C634.852 507.071 635.122 503.351 635.403 500.491C636.354 499.901 638.087 500.721 638.628 501.341Z" fill="#C77F4A"></path>
<path d="M632.188 510.06C630.906 510.79 629.554 510.96 627.871 510.47L628.081 501.18C628.101 500.27 631.006 499.7 632.008 500.31L632.198 510.06H632.188Z" fill="#C77F4A"></path>
<path d="M568.017 509.631L567.812 524.92L572.91 524.988L573.114 509.699L568.017 509.631Z" fill="#C77F4A"></path>
<path d="M690.322 481.12H689.641L689.27 459.209C689.26 458.179 688.849 457.519 688.238 457.489L688.479 455.569C689.971 454.879 691.213 453.709 691.323 451.989C691.544 452.129 691.974 452.259 692.245 452.269C693.927 452.309 695.37 451.449 697.273 450.119L698.046 453.196C694.36 453.316 693.827 454.549 692.104 457.109C695.74 457.229 698.515 457.849 701.439 456.899C699.807 455.709 696.562 452.189 697.273 450.119C700.017 451.569 704.044 456.549 703.964 459.479L703.403 481.29L690.322 481.11V481.12ZM692.966 467.99L693.537 476.78C693.567 477.18 692.996 478.27 693.266 478.7C693.457 479 694.248 478.93 694.578 478.86C697.173 478.34 693.957 471.3 698.525 471.24C697.543 474.21 696.091 477.24 699.476 479.38C699.867 475.48 700.137 472.47 699.627 468.64C699.376 466.799 700.157 463.939 697.914 462.539C696.461 461.639 694.448 462.429 693.777 463.299C692.725 464.649 692.866 466.319 692.976 467.99H692.966Z" fill="#F2EFE7"></path>
<path d="M575.74 509.66L575.637 525.11L580.364 525.142L580.467 509.692L575.74 509.66Z" fill="#C77F4A"></path>
<path d="M572.671 507.22L568.094 507.18L568.004 498.19C567.984 496.38 571.319 495.48 572.661 496.21V507.22H572.671Z" fill="#C77F4A"></path>
<path d="M579.062 497.96C581.095 499.32 580.895 506.741 579.542 507.621C578.721 508.161 575.967 507.701 575.927 506.471L575.656 496.75C577.119 496.34 578.25 497.43 579.062 497.96Z" fill="#C77F4A"></path>
<path d="M769.377 534.76L764.98 534.58C764.269 529.61 764.46 524.95 764.98 519.76L769.438 519.51L769.377 534.76Z" fill="#C77F4A"></path>
<path d="M757.73 519.728L757.59 534.577L762.357 534.622L762.498 519.773L757.73 519.728Z" fill="#C77F4A"></path>
<path d="M757.557 507.163L757.547 517.693L762.345 517.698L762.355 507.168L757.557 507.163Z" fill="#C77F4A"></path>
<path d="M769.236 517.711C768.405 518.311 766.642 518.201 765.21 517.891L765.02 507.841C765.981 507.281 768.856 508.041 769.146 509.351C769.707 511.841 769.467 514.741 769.236 517.711Z" fill="#C77F4A"></path>
<path d="M702.692 516.9H698.285V531.781H702.692V516.9Z" fill="#C77F4A"></path>
<path d="M694.634 517.771H690.117V532.461H694.634V517.771Z" fill="#C77F4A"></path>
<path d="M695.878 503.047L691.211 503.109L691.36 514.179L696.027 514.116L695.878 503.047Z" fill="#C77F4A"></path>
<path d="M702.411 504.821C704.074 506.131 703.753 513.631 702.761 514.161C701.97 514.581 699.186 514.341 699.105 513.441L699.166 503.311C700.708 503.771 701.77 504.311 702.411 504.821Z" fill="#C77F4A"></path>
<path d="M567.001 473.45L567.051 452.249C567.051 451.189 565.95 450.159 564.918 449.649L574.203 442.919L582.286 451.309C581.284 453.599 580.753 455.709 580.733 458.209L580.603 474.51L567.001 473.44V473.45ZM579.271 451.129C577.658 448.049 576.076 447.289 574.103 445.739C571.849 446.919 569.996 447.979 568.704 450.669L579.271 451.129ZM574.083 459.769C574.523 462.839 575.815 462.679 576.487 462.709C577.478 462.749 577.358 461.099 577.368 460.339C577.398 457.459 576.256 455.349 573.702 455.439C570.918 455.539 569.045 460.869 570.567 462.259C571.579 463.179 572.35 461.549 574.093 459.769H574.083Z" fill="#F2EFE7"></path>
<path d="M634.3 447.69L633.859 449.08C631.876 449.95 629.872 450.79 628.35 453.47C633.018 453.61 635.882 453.37 638.877 454.65C638.987 454.95 639.608 455.29 640.029 455.64L639.798 477.69L625.916 476.73L625.976 453.49C624.694 453.98 623.753 454.46 622.711 453.47L631.114 447.26C631.826 446.73 633.007 446.08 633.338 446.49L634.3 447.69ZM629.862 465.45L629.512 475.22C630.143 475.24 630.704 475.26 630.704 475.27C631.856 472.98 631.034 470.53 631.355 468.27L632.767 467.89L634.259 475.67C636.132 472.27 635.101 469.33 635.982 466.44C636.814 463.7 636.463 460 633.799 458.65C632.056 457.77 630.674 459.72 629.943 460.6C628.781 462 629.902 464.19 629.862 465.45Z" fill="#F2EFE7"></path>
<path d="M640.039 455.64C639.619 455.28 638.998 454.95 638.887 454.65C638.637 451.81 635.141 451.06 633.859 449.079L634.3 447.689L641.992 454.61C641.562 455.25 640.42 455.37 640.039 455.64Z" fill="#F2EFE7"></path>
<path d="M754.912 483.969C753.9 484.119 753.189 483.839 753.199 482.419L753.33 462.249C754.231 462.709 754.361 463.769 754.381 465.159L754.902 483.969H754.912Z" fill="#2E4450"></path>
<path d="M767.325 485.2C765.082 486.94 761.496 486.87 759.312 485.14L767.325 485.2Z" fill="#2E4450"></path>
<path d="M768.219 485.199L768.339 482.259C769.3 482.039 769.992 482.349 770.472 482.769C771.524 483.699 770.823 484.909 769.841 485.209C769.431 485.329 768.72 485.199 768.219 485.209V485.199Z" fill="#2E4450"></path>
<path d="M757.308 486.209C758.56 486.349 758.189 487.689 757.097 487.409C754.844 487.769 755.435 485.369 757.308 486.209Z" fill="#2E4450"></path>
<path d="M764.197 471.989C762.414 473.069 762.074 471.029 761.853 470.629C761.633 470.229 760.221 472.049 759.84 472.379C758.218 472.899 757.456 470.309 758.458 469.079C759.269 468.079 759.95 465.819 762.424 466.249C764.458 466.599 765.85 470.999 764.207 471.999L764.197 471.989Z" fill="#2E4450"></path>
<path d="M699.618 468.649C700.129 472.479 699.868 475.479 699.467 479.389C696.092 477.239 697.534 474.209 698.516 471.249C693.949 471.309 697.174 478.349 694.57 478.869C694.239 478.939 693.448 479.009 693.258 478.709C692.997 478.279 693.558 477.189 693.528 476.789L692.957 467.999C694.389 468.239 695.331 467.539 696.312 466.039C697.414 467.359 698.266 468.089 699.608 468.659L699.618 468.649Z" fill="#EFE4D4"></path>
<path d="M764.876 472.619C765.386 476.449 765.126 479.449 764.725 483.359C761.35 481.209 762.792 478.179 763.774 475.219C759.206 475.279 762.432 482.319 759.827 482.839C759.497 482.909 758.706 482.979 758.515 482.679C758.255 482.249 758.816 481.159 758.786 480.759L758.215 471.969C759.647 472.209 760.589 471.509 761.57 470.009C762.672 471.329 763.523 472.059 764.865 472.629L764.876 472.619Z" fill="#EFE4D4"></path>
<path d="M508.209 506.54H503.691V519.26H508.209V506.54Z" fill="#C77F4A"></path>
<path d="M509.551 494.615L505.254 494.66L505.344 503.23L509.64 503.185L509.551 494.615Z" fill="#C77F4A"></path>
<path d="M509.046 449.33L505.27 449.349L505.324 460.459L509.1 460.44L509.046 449.33Z" fill="#C77F4A"></path>
<path d="M505.64 447.819C504.969 446.499 505.189 444.019 505.45 442.919C506.421 442.399 507.944 442.809 508.474 443.429C509.166 444.219 508.915 446.089 509.055 446.929C509.286 448.289 506.201 448.919 505.64 447.819Z" fill="#C77F4A"></path>
<path d="M574.081 459.769C572.339 461.549 571.567 463.179 570.556 462.259C569.033 460.869 570.906 455.539 573.691 455.439C576.245 455.349 577.397 457.459 577.357 460.339C577.357 461.099 577.467 462.749 576.475 462.709C575.804 462.679 574.512 462.839 574.071 459.769H574.081Z" fill="#2E4450"></path>
<path d="M579.274 451.129L568.707 450.669C569.999 447.979 571.852 446.919 574.106 445.739C576.079 447.289 577.661 448.049 579.274 451.129Z" fill="#2E4450"></path>
<path d="M635.986 466.439C635.105 469.329 636.146 472.269 634.263 475.669L632.771 467.889L631.359 468.269C631.038 470.529 631.859 472.979 630.708 475.269C630.708 475.269 630.147 475.239 629.516 475.219L629.866 465.449C631.429 465.019 631.99 464.179 633.252 462.419C633.973 464.889 634.734 465.869 635.996 466.449L635.986 466.439Z" fill="#EFE4D4"></path>
<path d="M576.925 462.509C576.044 465.399 576.545 468.859 574.662 472.259L573.169 464.479L571.757 464.859C571.437 467.119 572.258 469.569 571.106 471.859C571.106 471.859 570.545 471.829 569.914 471.809L570.265 462.039C571.827 461.609 572.658 461.269 573.921 459.509C574.642 461.979 574.922 462.009 575.924 462.509H576.925Z" fill="#EFE4D4"></path>
<path d="M635.982 466.439C634.72 465.859 633.969 464.889 633.238 462.409C631.976 464.169 631.415 465.009 629.852 465.439C629.903 464.169 628.771 461.989 629.933 460.589C630.664 459.709 632.046 457.759 633.789 458.639C636.453 459.989 636.814 463.689 635.972 466.429L635.982 466.439Z" fill="#2E4450"></path>
<path d="M633.858 449.079C635.14 451.059 638.636 451.809 638.886 454.649C635.881 453.369 633.027 453.609 628.359 453.469C629.872 450.789 631.885 449.949 633.868 449.079H633.858Z" fill="#2E4450"></path>
<path d="M849.255 525.061H845.449V535.961H849.255V525.061Z" fill="#C77F4A"></path>
<path d="M849.283 516.582L845.457 516.598L845.487 524.128L849.313 524.112L849.283 516.582Z" fill="#C77F4A"></path>
<path d="M849.523 486.029C848.171 486.449 846.959 486.369 845.566 486.169L846.027 472.629C848.511 472.119 849.363 473.549 849.383 475.229L849.523 486.029Z" fill="#C77F4A"></path>
<path d="M466.445 117.1C472.321 116.869 477.399 116.577 482.649 116.577C482.649 116.577 493.18 116.146 499.932 116.053C518.291 115.8 541.94 116.577 544.222 116.577C546.504 116.577 549.083 116.577 556.105 117.624C563.126 118.672 603.214 123.934 628.665 130.107C705.934 150.021 775.912 189.492 831.328 245.67C865.571 280.382 894.91 325.513 915.283 368.642L918.524 376.503C918.88 377.373 926.929 398.167 926.929 398.167C926.929 398.167 935.808 423.667 938.508 436.768V442.008C937.806 440.573 917.498 392.182 917.498 392.182C895.85 347.02 862.979 299.563 828.303 262.68C821.504 255.448 818.062 252.1 812.532 247.378C744.207 189.041 662.033 146.332 571.51 130.799C571.51 130.799 543.488 126.062 533.42 125.485C529.693 125.276 522.769 124.94 522.769 124.94L520.62 124.804C516.136 124.437 497.956 123.714 497.956 123.714L495.774 123.641C496.195 123.232 473.467 122.865 473.467 122.865C467.201 122.949 463.464 123.389 455.643 123.714C447.821 124.039 428.637 126.009 428.637 126.009L374.625 135.966C374.96 134.467 396.77 128.105 411.408 125.129L413.698 124.689C423.776 122.865 435.658 120.769 435.658 120.769L443.901 119.406C444.171 119.364 463.464 117.331 463.464 117.331C463.464 117.331 464.825 117.1 466.445 117.1Z" fill="#2E4450"></path>
<path d="M373.311 136.731H374.034L374.747 136.753L374.034 136.774H373.311L372.598 136.753L373.311 136.731Z" fill="#2E4450"></path>
<path d="M928.377 409.79L928.387 410.471V411.184L928.377 411.865L928.355 411.184V410.471L928.377 409.79Z" fill="#2E4450"></path>
</g>
<defs>
<clipPath id="clip0_963_1104">
<rect width="977" height="1053" fill="white"></rect>
</clipPath>
</defs>
</svg>